<svg width="18" height="15" viewBox="0 0 18 15" fill="none" xmlns="http://www.w3.org/2000/svg">
<path d="M15.4375 1.55663C14.2637 1.01267 13.0135 0.611851 11.6966 0.382812C11.5343 0.66911 11.3435 1.06038 11.2194 1.37531C9.82608 1.16536 8.44231 1.16536 7.07763 1.37531C6.94403 1.06038 6.75316 0.66911 6.59093 0.382812C5.27395 0.611851 4.02379 1.01267 2.84997 1.55663C0.483236 5.12582 -0.156163 8.60914 0.158764 12.0352C1.7334 13.209 3.25078 13.9152 4.74907 14.3828C5.12126 13.877 5.44573 13.3331 5.73203 12.77C5.18807 12.5696 4.67273 12.3119 4.18602 12.0161C4.31963 11.9207 4.44369 11.8157 4.56775 11.7202C7.55479 13.1136 10.79 13.1136 13.7388 11.7202C13.8629 11.8252 13.9869 11.9207 14.1206 12.0161C13.6338 12.3119 13.109 12.56 12.5745 12.77C12.8608 13.3331 13.1853 13.877 13.5575 14.3828C15.0558 13.9152 16.5827 13.209 18.1478 12.0352C18.52 8.05563 17.5084 4.61048 15.4566 1.55663H15.4375ZM6.13285 9.93565C5.23578 9.93565 4.50095 9.10539 4.50095 8.08426C4.50095 7.06313 5.21669 6.23286 6.13285 6.23286C7.049 6.23286 7.77428 7.06313 7.76474 8.08426C7.76474 9.09584 7.049 9.93565 6.13285 9.93565ZM12.1546 9.93565C11.2576 9.93565 10.5227 9.10539 10.5227 8.08426C10.5227 7.06313 11.2385 6.23286 12.1546 6.23286C13.0708 6.23286 13.7961 7.06313 13.7865 8.08426C13.7865 9.09584 13.0708 9.93565 12.1546 9.93565Z" fill="white"/>
</svg>
