<svg width="11" height="19" viewBox="0 0 11 19" fill="none" xmlns="http://www.w3.org/2000/svg">
<path d="M7.83553 3.84176C7.61139 3.84176 7.42023 3.92527 7.26201 4.09231C7.1038 4.25934 7.0247 4.46117 7.0247 4.6978V6.72308C7.0247 6.77876 7.04118 6.82747 7.07414 6.86923C7.1071 6.91099 7.15654 6.93187 7.22246 6.93187H10.1889C10.413 6.93187 10.6042 7.01538 10.7624 7.18242C10.9206 7.34945 10.9997 7.55128 10.9997 7.78791V9.8967C10.9997 10.1333 10.9206 10.3352 10.7624 10.5022C10.6042 10.6692 10.413 10.7527 10.1889 10.7527H7.24224C7.17632 10.7527 7.12688 10.7736 7.09392 10.8154C7.06096 10.8571 7.04448 10.9128 7.04448 10.9824V18.144C7.04448 18.3806 6.96537 18.5824 6.80716 18.7495C6.64895 18.9165 6.45778 19 6.23365 19H4.21648C4.00553 19 3.81766 18.9165 3.65286 18.7495C3.48805 18.5824 3.40565 18.3806 3.40565 18.144V10.9824C3.40565 10.9128 3.38917 10.8571 3.35621 10.8154C3.32325 10.7736 3.27381 10.7527 3.20789 10.7527H0.953403C0.729271 10.7527 0.538103 10.6692 0.379893 10.5022C0.221682 10.3352 0.142578 10.1333 0.142578 9.8967V7.78791C0.142578 7.55128 0.221682 7.34945 0.379893 7.18242C0.538103 7.01538 0.729271 6.93187 0.953403 6.93187H3.20789C3.27381 6.93187 3.32325 6.91099 3.35621 6.86923C3.38917 6.82747 3.40565 6.77876 3.40565 6.72308V3.82088C3.40565 2.763 3.75833 1.86173 4.46368 1.11703C5.16904 0.372341 6.0227 0 7.0247 0H10.1691C10.3933 0 10.5844 0.0835157 10.7426 0.250549C10.9008 0.417583 10.9799 0.619413 10.9799 0.856044V2.98571C10.9799 3.22235 10.9008 3.42417 10.7426 3.59121C10.5844 3.75824 10.3933 3.84176 10.1691 3.84176H7.83553Z" fill="white"/>
</svg>
