<svg width="19" height="18" viewBox="0 0 19 18" fill="none" xmlns="http://www.w3.org/2000/svg">
<path d="M2.31561 0C3.49488 0 4.48794 1.01051 4.48794 2.21052C4.48794 3.47366 3.4328 4.45262 2.31561 4.42103C1.16738 4.45262 0.143287 3.47366 0.143287 2.21052C0.112245 0.978926 1.10534 0 2.31561 0Z" fill="white"/>
<path d="M3.52619 18.0003H1.04351C0.702157 18.0003 0.422852 17.7161 0.422852 17.3687V6.31614C0.422852 5.96879 0.671115 5.68457 1.01247 5.68457H3.52615C3.8675 5.68457 4.14681 5.96879 4.14681 6.31614V17.4003C4.14684 17.7161 3.86754 18.0003 3.52619 18.0003Z" fill="white"/>
<path d="M18.112 9.53657C18.112 7.19974 16.4052 5.36816 14.1087 5.36816H13.457C12.2157 5.36816 11.0054 5.96815 10.3537 6.94711C10.1365 7.16815 10.0434 7.26291 10.0434 7.26291V5.99977C10.0434 5.87346 9.85715 5.68397 9.73302 5.68397H6.62968C6.50555 5.68397 6.31934 5.81028 6.31934 5.96818V17.7471C6.31934 17.8734 6.50555 17.9997 6.62968 17.9997H10.0433C10.1675 17.9997 10.3537 17.8734 10.3537 17.7471V10.926C10.3537 9.75761 11.2226 8.77865 12.3708 8.7471C12.9604 8.7471 13.488 8.96814 13.8915 9.37867C14.2638 9.75761 14.419 10.2945 14.419 10.8944V17.6839C14.419 17.8102 14.6052 17.9997 14.7294 17.9997H17.8327C17.9568 17.9997 18.1431 17.8102 18.1431 17.6839V9.53657H18.112Z" fill="white"/>
</svg>
