<svg width="18" height="17" viewBox="0 0 18 17" fill="none" xmlns="http://www.w3.org/2000/svg">
<path fill-rule="evenodd" clip-rule="evenodd" d="M5.63177 0.104319C4.24807 0.166752 3.04876 0.505048 2.08034 1.46938C1.10854 2.43877 0.774448 3.64284 0.71186 5.01214C0.672954 5.86679 0.445452 12.3235 1.10516 14.0168C1.55004 15.1591 2.42625 16.0375 3.57904 16.4838C4.11696 16.693 4.73101 16.8346 5.63177 16.876C13.1634 17.2168 15.9553 17.0313 17.1327 14.0168C17.3416 13.4802 17.4854 12.8667 17.5251 11.9682C17.8693 4.41719 17.4693 2.78046 16.1567 1.46938C15.1155 0.430801 13.8908 -0.276182 5.63177 0.104319ZM5.7011 15.3574C4.87647 15.3202 4.42906 15.1828 4.1305 15.0673C3.37945 14.7753 2.81531 14.2135 2.52521 13.4669C2.02282 12.1802 2.18944 6.06942 2.23427 5.08062C2.27825 4.11207 2.47447 3.22688 3.15786 2.5435C4.00364 1.69981 5.09637 1.28632 12.5367 1.62211C13.5077 1.66598 14.3949 1.8618 15.08 2.5435C15.9257 3.38718 16.3453 4.48832 16.0036 11.9001C15.9663 12.7227 15.8285 13.169 15.7126 13.4669C14.9472 15.4284 13.1863 15.7007 5.7011 15.3574ZM12.6187 3.98617C12.6187 4.54469 13.0729 4.99886 13.6337 4.99886C14.1944 4.99886 14.6495 4.54469 14.6495 3.98617C14.6495 3.42765 14.1944 2.97389 13.6337 2.97389C13.0729 2.97389 12.6187 3.42765 12.6187 3.98617ZM4.77583 8.48974C4.77583 10.8824 6.72028 12.8223 9.11891 12.8223C11.5175 12.8223 13.462 10.8824 13.462 8.48974C13.462 6.09705 11.5175 4.15841 9.11891 4.15841C6.72028 4.15841 4.77583 6.09705 4.77583 8.48974ZM6.29993 8.48974C6.29993 6.93736 7.56183 5.67786 9.11891 5.67786C10.676 5.67786 11.9379 6.93736 11.9379 8.48974C11.9379 10.043 10.676 11.3029 9.11891 11.3029C7.56183 11.3029 6.29993 10.043 6.29993 8.48974Z" fill="white"/>
</svg>
