<svg width="18" height="15" viewBox="0 0 18 15" fill="none" xmlns="http://www.w3.org/2000/svg">
<path d="M16.258 0.545738C16.258 0.545738 17.8769 -0.0855119 17.742 1.44753C17.697 2.07878 17.2923 4.28816 16.9775 6.67791L15.8983 13.757C15.8983 13.757 15.8084 14.794 14.9989 14.9744C14.1895 15.1547 12.9753 14.3431 12.7505 14.1627C12.5706 14.0275 9.37783 11.9984 8.25358 11.0065C7.93879 10.7359 7.57904 10.1949 8.29854 9.56362L13.0203 5.0547C13.5599 4.51362 14.0995 3.25112 11.8511 4.78416L5.55546 9.06766C5.55546 9.06766 4.83596 9.51853 3.48692 9.11274L0.563925 8.21095C0.563925 8.21095 -0.515329 7.53462 1.3284 6.85824C5.82529 4.73903 11.3565 2.57474 16.258 0.545738Z" fill="white"/>
</svg>
