<svg width="20" height="15" viewBox="0 0 20 15" fill="none" xmlns="http://www.w3.org/2000/svg">
<path fill-rule="evenodd" clip-rule="evenodd" d="M19.6426 1.7785C18.9435 2.07838 18.1922 2.28291 17.4037 2.37287C18.2081 1.9046 18.8264 1.1626 19.1169 0.279116C18.3656 0.712016 17.5304 1.02727 16.643 1.19874C15.9312 0.462887 14.9171 0 13.7977 0C11.6452 0 9.89795 1.697 9.89795 3.78768C9.89795 4.08525 9.93199 4.37359 10.0001 4.64963C6.75979 4.49354 3.88683 2.9857 1.96624 0.693562C1.62899 1.25256 1.43741 1.9046 1.43741 2.59816C1.43741 3.9107 2.12379 5.07023 3.17195 5.74918C2.53229 5.72765 1.9322 5.56003 1.40654 5.27399C1.40654 5.29244 1.40654 5.30705 1.40654 5.32243C1.40654 7.15783 2.74841 8.68951 4.53283 9.03476C4.20508 9.12164 3.8615 9.17008 3.50604 9.17008C3.25587 9.17008 3.00808 9.14625 2.77295 9.10088C3.26774 10.6056 4.70937 11.699 6.41304 11.7321C5.07987 12.7471 3.39758 13.3507 1.57358 13.3507C1.2577 13.3507 0.948953 13.333 0.642578 13.2969C2.36841 14.3726 4.41566 15 6.61729 15C13.7882 15 17.7101 9.23006 17.7101 4.22596C17.7101 4.06372 17.7038 3.8984 17.6975 3.73616C18.4582 3.20176 19.1201 2.53511 19.6426 1.7785Z" fill="white"/>
</svg>
