<svg width="33" height="38" viewBox="0 0 33 38" fill="none" xmlns="http://www.w3.org/2000/svg">
<path fill-rule="evenodd" clip-rule="evenodd" d="M0.634078 9.39991L16.0053 0.226746L32.0794 9.44751L28.0254 11.6772L16.8 5.22212V5.0755H16.545L16.1654 4.85721L4.76963 11.6745L0.634078 9.39991ZM5.33333 24.7445V12.5802L15.7333 6.35866V11.3134L9.6 15.0119V22.3978L5.33333 24.7445ZM16.8 11.296V6.45257L27.4667 12.5863V24.9779L23.2 22.4179V15.0057L16.8 11.296ZM4.26667 12.6152L0 10.2685V28.8996L15.4667 37.7556V32.6197L4.26667 26.1912V12.6152ZM28.5333 26.1972V12.6152L32.6667 10.3419V28.8936L16.5333 37.7732V32.8179L28.5333 26.1972ZM16.2667 11.6033L16.2762 11.6088L16.2667 11.6146V11.6033ZM21.5946 15.3081L16.2815 12.2284L11.0585 15.3779L16.2667 18.416L21.5946 15.3081ZM4.78079 12.2893L4.8 12.2778V12.2998L4.78079 12.2893ZM28 12.2778L28.0196 12.2891L28 12.2998V12.2778ZM16.8 25.3739V19.3398L22.1333 16.2287V22.4078L16.8 25.3739ZM10.6667 22.4139V16.3842L15.7333 19.3398V25.3453L10.6667 22.4139ZM10.126 22.7172L10.1333 22.7132V22.7215L10.126 22.7172ZM22.6667 22.7215V22.7198L22.6681 22.7207L22.6667 22.7215ZM16.1759 31.7969L5.67885 25.7718L10.1194 23.3295L16.271 26.8887L22.658 23.3366L26.8985 25.8809L16.1759 31.7969ZM16 32.503V32.3108L16.1708 32.4088L16 32.503Z" fill="white"/>
</svg>
