<svg width="20" height="15" viewBox="0 0 20 15" fill="none" xmlns="http://www.w3.org/2000/svg">
<path fill-rule="evenodd" clip-rule="evenodd" d="M7.98844 10.0861V4.4743C9.98064 5.41173 11.5236 6.31731 13.3485 7.29363C11.8433 8.12835 9.98064 9.06492 7.98844 10.0861ZM19.091 1.68328C18.7474 1.23052 18.1617 0.878089 17.5381 0.761409C15.7053 0.413359 4.27099 0.412369 2.43915 0.761409C1.93911 0.855149 1.49384 1.08173 1.11133 1.43377C-0.500363 2.92967 0.00466618 10.9517 0.393147 12.2512C0.556507 12.8136 0.76769 13.2193 1.03365 13.4855C1.37631 13.8376 1.84547 14.08 2.38436 14.1887C3.89345 14.5008 11.668 14.6753 17.5062 14.2355C18.0441 14.1418 18.5202 13.8916 18.8958 13.5246C20.3859 12.0347 20.2843 3.56213 19.091 1.68328Z" fill="white"/>
</svg>
