<svg width="611" height="152" viewBox="0 0 611 152" fill="none" xmlns="http://www.w3.org/2000/svg">
<path fill-rule="evenodd" clip-rule="evenodd" d="M16.3778 39.6065L74.02 5.20709L134.298 39.785L119.095 48.1462L77 23.9398V23.3899H76.0439L74.6203 22.5713L31.8861 48.136L16.3778 39.6065ZM34 97.1487V51.5326L73 28.2018V46.7819L50 60.6513V88.3487L34 97.1487ZM77 46.7169V28.5539L117 51.5555V98.0238L101 88.4238V60.6283L77 46.7169ZM30 51.6637L14 42.8638V112.73L72 145.94V126.681L30 102.574V51.6637ZM121 102.596V51.6637L136.5 43.1388V112.708L76 146.006V127.424L121 102.596ZM75 47.8693L75.0356 47.8899L75 47.9114V47.8693ZM94.9796 61.762L75.0557 50.2133L55.4695 62.024L75 73.4168L94.9796 61.762ZM31.9279 50.4416L32 50.3985V50.4812L31.9279 50.4416ZM119 50.3985L119.074 50.4408L119 50.4812V50.3985ZM77 99.5089V76.881L97 65.2143V88.3861L77 99.5089ZM54 88.4088V65.7976L73 76.881V99.4016L54 88.4088ZM51.9725 89.5464L52 89.5312V89.5623L51.9725 89.5464ZM99 89.5623V89.5561L99.0053 89.5593L99 89.5623ZM74.6597 123.595L35.2957 101.001L51.9476 91.8426L75.0161 105.189L98.9674 91.8689L114.87 101.41L74.6597 123.595ZM74 126.243V125.522L74.6403 125.89L74 126.243Z" fill="white"/>
<path d="M180.532 132.143C175.75 132.143 171.815 131.381 168.726 129.857C165.679 128.334 163.288 126.133 161.553 123.256C159.86 120.378 158.675 116.929 157.998 112.909C157.321 108.847 156.982 104.319 156.982 99.3252V63.8418C156.982 59.3984 157.427 55.3783 158.315 51.7812C159.246 48.1842 160.664 45.1162 162.568 42.5771C164.515 40.0381 167.033 38.0915 170.122 36.7373C173.211 35.3408 176.935 34.6426 181.294 34.6426C185.737 34.6426 189.44 35.3197 192.402 36.6738C195.365 38.028 197.692 39.9958 199.385 42.5771C201.12 45.1585 202.347 48.2689 203.066 51.9082C203.828 55.5052 204.209 59.5889 204.209 64.1592V84.5352H173.931V103.261C173.931 107.873 174.29 111.576 175.01 114.369C175.729 117.162 177.697 118.559 180.913 118.559C183.071 118.559 184.595 117.903 185.483 116.591C186.414 115.279 186.965 113.48 187.134 111.195C187.345 108.868 187.451 106.223 187.451 103.261V94.8818H204.082V99.96C204.082 105.08 203.765 109.63 203.13 113.607C202.537 117.585 201.395 120.95 199.702 123.7C198.052 126.451 195.682 128.546 192.593 129.984C189.504 131.423 185.483 132.143 180.532 132.143ZM173.867 74.6963H187.451V62.5088C187.451 59.335 187.303 56.6689 187.007 54.5107C186.711 52.3102 186.118 50.6598 185.229 49.5596C184.341 48.4593 182.987 47.9092 181.167 47.9092C178.924 47.9092 177.274 48.5651 176.216 49.877C175.2 51.1888 174.544 52.9873 174.248 55.2725C173.994 57.5153 173.867 60.0755 173.867 62.9531V74.6963ZM241.406 132.143C236.54 132.143 232.52 131.402 229.346 129.921C226.172 128.397 223.675 126.218 221.855 123.383C220.078 120.548 218.83 117.099 218.11 113.036C217.391 108.974 217.031 104.382 217.031 99.2617V68.4121C217.031 61.3874 217.687 55.3571 218.999 50.3213C220.311 45.2855 222.723 41.4134 226.235 38.7051C229.79 35.9967 234.91 34.6426 241.597 34.6426C245.701 34.6426 249.172 35.2773 252.007 36.5469C254.842 37.8164 257.127 39.6572 258.862 42.0693C260.597 44.4391 261.846 47.3167 262.607 50.7021C263.411 54.0876 263.813 57.8962 263.813 62.1279V72.6016H247.563V61.5566C247.563 58.806 247.437 56.4574 247.183 54.5107C246.929 52.5218 246.357 51.0195 245.469 50.0039C244.58 48.946 243.162 48.417 241.216 48.417C239.312 48.417 237.83 48.946 236.772 50.0039C235.715 51.0618 234.974 52.6064 234.551 54.6377C234.17 56.6266 233.979 59.0176 233.979 61.8105V104.721C233.979 107.598 234.149 110.053 234.487 112.084C234.868 114.115 235.545 115.681 236.519 116.781C237.534 117.839 239.015 118.368 240.962 118.368C242.866 118.368 244.284 117.818 245.215 116.718C246.188 115.575 246.823 113.988 247.119 111.957C247.415 109.926 247.563 107.535 247.563 104.784V93.4854H263.813V103.134C263.813 107.493 263.433 111.47 262.671 115.067C261.909 118.622 260.661 121.669 258.926 124.208C257.191 126.747 254.884 128.715 252.007 130.111C249.129 131.465 245.596 132.143 241.406 132.143ZM300.439 132.143C295.869 132.143 292.039 131.444 288.95 130.048C285.861 128.609 283.407 126.557 281.587 123.891C279.81 121.182 278.519 117.903 277.715 114.052C276.953 110.159 276.572 105.736 276.572 100.785V65.1748C276.572 59.208 277.334 53.9395 278.857 49.3691C280.423 44.7565 282.962 41.1595 286.475 38.5781C289.987 35.9544 294.642 34.6426 300.439 34.6426C304.84 34.6426 308.543 35.3831 311.548 36.8643C314.595 38.3454 317.028 40.4613 318.848 43.2119C320.71 45.9202 322.064 49.1364 322.91 52.8604C323.757 56.5843 324.18 60.6891 324.18 65.1748V100.785C324.18 105.652 323.799 110.01 323.037 113.861C322.318 117.712 321.048 121.013 319.229 123.764C317.451 126.472 315.039 128.546 311.992 129.984C308.945 131.423 305.094 132.143 300.439 132.143ZM300.439 118.559C302.344 118.559 303.783 117.987 304.756 116.845C305.729 115.66 306.385 114.031 306.724 111.957C307.062 109.883 307.231 107.493 307.231 104.784V62.1914C307.231 59.3138 307.041 56.8382 306.66 54.7646C306.279 52.6911 305.602 51.083 304.629 49.9404C303.656 48.7979 302.259 48.2266 300.439 48.2266C298.535 48.2266 297.075 48.7979 296.06 49.9404C295.086 51.083 294.409 52.6911 294.028 54.7646C293.69 56.8382 293.521 59.3138 293.521 62.1914V104.784C293.521 107.493 293.69 109.883 294.028 111.957C294.409 114.031 295.086 115.66 296.06 116.845C297.075 117.987 298.535 118.559 300.439 118.559ZM369.756 131.952C366.921 131.952 364.339 131.19 362.012 129.667C359.727 128.101 357.907 125.583 356.553 122.113V131H339.731V18.3291H356.553V42.6406C357.526 40.1439 359.176 38.1973 361.504 36.8008C363.831 35.4043 366.159 34.6849 368.486 34.6426C373.522 34.5579 377.415 35.7428 380.166 38.1973C382.917 40.6094 384.821 43.9736 385.879 48.29C386.979 52.6064 387.529 57.5576 387.529 63.1436V103.451C387.529 108.826 387 113.671 385.942 117.987C384.884 122.304 383.065 125.71 380.483 128.207C377.902 130.704 374.326 131.952 369.756 131.952ZM364.106 118.495C367.026 118.495 368.846 117.099 369.565 114.306C370.285 111.47 370.645 107.323 370.645 101.864V62.8896C370.645 60.012 370.496 57.473 370.2 55.2725C369.946 53.0719 369.375 51.3581 368.486 50.1309C367.598 48.8613 366.18 48.2266 364.233 48.2266C362.498 48.2266 361.06 48.6497 359.917 49.4961C358.774 50.3424 357.928 51.8236 357.378 53.9395C356.828 56.0553 356.553 59.0176 356.553 62.8262V102.055C356.553 107.302 356.997 111.365 357.886 114.242C358.817 117.077 360.89 118.495 364.106 118.495ZM402.891 131V18.3291H419.648V131H402.891ZM459.131 132.143C454.561 132.143 450.731 131.444 447.642 130.048C444.552 128.609 442.098 126.557 440.278 123.891C438.501 121.182 437.21 117.903 436.406 114.052C435.645 110.159 435.264 105.736 435.264 100.785V65.1748C435.264 59.208 436.025 53.9395 437.549 49.3691C439.115 44.7565 441.654 41.1595 445.166 38.5781C448.678 35.9544 453.333 34.6426 459.131 34.6426C463.532 34.6426 467.235 35.3831 470.239 36.8643C473.286 38.3454 475.719 40.4613 477.539 43.2119C479.401 45.9202 480.755 49.1364 481.602 52.8604C482.448 56.5843 482.871 60.6891 482.871 65.1748V100.785C482.871 105.652 482.49 110.01 481.729 113.861C481.009 117.712 479.74 121.013 477.92 123.764C476.143 126.472 473.73 128.546 470.684 129.984C467.637 131.423 463.786 132.143 459.131 132.143ZM459.131 118.559C461.035 118.559 462.474 117.987 463.447 116.845C464.421 115.66 465.076 114.031 465.415 111.957C465.754 109.883 465.923 107.493 465.923 104.784V62.1914C465.923 59.3138 465.732 56.8382 465.352 54.7646C464.971 52.6911 464.294 51.083 463.32 49.9404C462.347 48.7979 460.951 48.2266 459.131 48.2266C457.227 48.2266 455.767 48.7979 454.751 49.9404C453.778 51.083 453.101 52.6911 452.72 54.7646C452.381 56.8382 452.212 59.3138 452.212 62.1914V104.784C452.212 107.493 452.381 109.883 452.72 111.957C453.101 114.031 453.778 115.66 454.751 116.845C455.767 117.987 457.227 118.559 459.131 118.559ZM521.211 132.143C516.344 132.143 512.324 131.402 509.15 129.921C505.977 128.397 503.48 126.218 501.66 123.383C499.883 120.548 498.634 117.099 497.915 113.036C497.196 108.974 496.836 104.382 496.836 99.2617V68.4121C496.836 61.3874 497.492 55.3571 498.804 50.3213C500.116 45.2855 502.528 41.4134 506.04 38.7051C509.595 35.9967 514.715 34.6426 521.401 34.6426C525.506 34.6426 528.976 35.2773 531.812 36.5469C534.647 37.8164 536.932 39.6572 538.667 42.0693C540.402 44.4391 541.65 47.3167 542.412 50.7021C543.216 54.0876 543.618 57.8962 543.618 62.1279V72.6016H527.368V61.5566C527.368 58.806 527.241 56.4574 526.987 54.5107C526.733 52.5218 526.162 51.0195 525.273 50.0039C524.385 48.946 522.967 48.417 521.021 48.417C519.116 48.417 517.635 48.946 516.577 50.0039C515.519 51.0618 514.779 52.6064 514.355 54.6377C513.975 56.6266 513.784 59.0176 513.784 61.8105V104.721C513.784 107.598 513.953 110.053 514.292 112.084C514.673 114.115 515.35 115.681 516.323 116.781C517.339 117.839 518.82 118.368 520.767 118.368C522.671 118.368 524.089 117.818 525.02 116.718C525.993 115.575 526.628 113.988 526.924 111.957C527.22 109.926 527.368 107.535 527.368 104.784V93.4854H543.618V103.134C543.618 107.493 543.237 111.47 542.476 115.067C541.714 118.622 540.465 121.669 538.73 124.208C536.995 126.747 534.689 128.715 531.812 130.111C528.934 131.465 525.4 132.143 521.211 132.143ZM557.964 131V18.3291H574.785V79.0762L591.035 35.7852H608.11L589.766 82.6309L609.189 131H592.051L574.785 85.7412V131H557.964Z" fill="white"/>
<path d="M168.726 129.857L167.608 132.094L167.62 132.1L168.726 129.857ZM161.553 123.256L159.398 124.523L159.405 124.535L159.412 124.547L161.553 123.256ZM157.998 112.909L155.532 113.32L155.533 113.324L157.998 112.909ZM158.315 51.7812L155.895 51.1548L155.892 51.1682L155.888 51.1816L158.315 51.7812ZM162.568 42.5771L160.584 41.0561L160.576 41.0666L160.568 41.0771L162.568 42.5771ZM170.122 36.7373L171.126 39.027L171.139 39.0212L171.152 39.0154L170.122 36.7373ZM199.385 42.5771L197.294 43.948L197.302 43.9599L197.31 43.9717L199.385 42.5771ZM203.066 51.9082L200.614 52.393L200.617 52.4096L200.621 52.4261L203.066 51.9082ZM204.209 84.5352V87.0352H206.709V84.5352H204.209ZM173.931 84.5352V82.0352H171.431V84.5352H173.931ZM185.483 116.591L183.445 115.144L183.429 115.166L183.414 115.189L185.483 116.591ZM187.134 111.195L184.644 110.969L184.642 110.99L184.641 111.011L187.134 111.195ZM187.451 94.8818V92.3818H184.951V94.8818H187.451ZM204.082 94.8818H206.582V92.3818H204.082V94.8818ZM203.13 113.607L200.661 113.213L200.659 113.226L200.657 113.239L203.13 113.607ZM199.702 123.7L197.573 122.39L197.566 122.402L197.558 122.414L199.702 123.7ZM192.593 129.984L191.537 127.718L192.593 129.984ZM173.867 74.6963H171.367V77.1963H173.867V74.6963ZM187.451 74.6963V77.1963H189.951V74.6963H187.451ZM187.007 54.5107L184.529 54.8443L184.53 54.8507L187.007 54.5107ZM176.216 49.877L174.27 48.3076L174.254 48.3269L174.239 48.3465L176.216 49.877ZM174.248 55.2725L171.769 54.9511L171.766 54.9711L171.764 54.9912L174.248 55.2725ZM180.532 129.643C175.994 129.643 172.47 128.916 169.831 127.615L167.62 132.1C171.16 133.845 175.507 134.643 180.532 134.643V129.643ZM169.844 127.621C167.214 126.307 165.181 124.431 163.694 121.965L159.412 124.547C161.395 127.836 164.143 130.361 167.608 132.093L169.844 127.621ZM163.708 121.988C162.199 119.424 161.101 116.278 160.463 112.494L155.533 113.324C156.25 117.581 157.521 121.332 159.398 124.523L163.708 121.988ZM160.464 112.498C159.814 108.596 159.482 104.209 159.482 99.3252H154.482C154.482 104.429 154.828 109.097 155.532 113.32L160.464 112.498ZM159.482 99.3252V63.8418H154.482V99.3252H159.482ZM159.482 63.8418C159.482 59.5618 159.911 55.7474 160.742 52.3809L155.888 51.1816C154.943 55.0091 154.482 59.235 154.482 63.8418H159.482ZM160.736 52.4077C161.599 49.0734 162.89 46.3147 164.568 44.0771L160.568 41.0771C158.438 43.9178 156.894 47.2951 155.895 51.1548L160.736 52.4077ZM164.552 44.0982C166.228 41.9123 168.401 40.2213 171.126 39.027L169.118 34.4476C165.664 35.9617 162.802 38.1639 160.584 41.0561L164.552 44.0982ZM171.152 39.0154C173.839 37.8006 177.193 37.1426 181.294 37.1426V32.1426C176.678 32.1426 172.584 32.881 169.092 34.4593L171.152 39.0154ZM181.294 37.1426C185.502 37.1426 188.823 37.7864 191.363 38.9475L193.442 34.4001C190.057 32.853 185.973 32.1426 181.294 32.1426V37.1426ZM191.363 38.9475C193.921 40.1171 195.874 41.7828 197.294 43.948L201.475 41.2063C199.51 38.2088 196.808 35.9389 193.442 34.4001L191.363 38.9475ZM197.31 43.9717C198.828 46.2303 199.947 49.0175 200.614 52.393L205.519 51.4234C204.747 47.5203 203.412 44.0868 201.46 41.1826L197.31 43.9717ZM200.621 52.4261C201.339 55.8177 201.709 59.7228 201.709 64.1592H206.709C206.709 59.4549 206.317 55.1927 205.512 51.3903L200.621 52.4261ZM201.709 64.1592V84.5352H206.709V64.1592H201.709ZM204.209 82.0352H173.931V87.0352H204.209V82.0352ZM171.431 84.5352V103.261H176.431V84.5352H171.431ZM171.431 103.261C171.431 107.974 171.795 111.912 172.589 114.993L177.431 113.746C176.785 111.24 176.431 107.772 176.431 103.261H171.431ZM172.589 114.993C173.066 116.844 174.023 118.446 175.578 119.55C177.105 120.634 178.957 121.059 180.913 121.059V116.059C179.653 116.059 178.913 115.785 178.472 115.472C178.06 115.18 177.673 114.687 177.431 113.746L172.589 114.993ZM180.913 121.059C183.571 121.059 186.041 120.225 187.553 117.993L183.414 115.189C183.148 115.58 182.571 116.059 180.913 116.059V121.059ZM187.522 118.038C188.806 116.229 189.438 113.937 189.627 111.38L184.641 111.011C184.491 113.024 184.023 114.329 183.445 115.144L187.522 118.038ZM189.624 111.422C189.843 109.002 189.951 106.28 189.951 103.261H184.951C184.951 106.166 184.847 108.733 184.644 110.969L189.624 111.422ZM189.951 103.261V94.8818H184.951V103.261H189.951ZM187.451 97.3818H204.082V92.3818H187.451V97.3818ZM201.582 94.8818V99.96H206.582V94.8818H201.582ZM201.582 99.96C201.582 104.982 201.27 109.395 200.661 113.213L205.599 114.001C206.259 109.864 206.582 105.179 206.582 99.96H201.582ZM200.657 113.239C200.103 116.962 199.051 119.988 197.573 122.39L201.831 125.01C203.739 121.911 204.972 118.208 205.603 113.976L200.657 113.239ZM197.558 122.414C196.181 124.709 194.204 126.476 191.537 127.718L193.648 132.251C197.16 130.615 199.922 128.192 201.846 124.986L197.558 122.414ZM191.537 127.718C188.893 128.95 185.271 129.643 180.532 129.643V134.643C185.696 134.643 190.114 133.897 193.648 132.251L191.537 127.718ZM173.867 77.1963H187.451V72.1963H173.867V77.1963ZM189.951 74.6963V62.5088H184.951V74.6963H189.951ZM189.951 62.5088C189.951 59.2676 189.801 56.4798 189.484 54.1708L184.53 54.8507C184.806 56.8581 184.951 59.4023 184.951 62.5088H189.951ZM189.484 54.1772C189.159 51.7592 188.47 49.5932 187.174 47.9887L183.285 51.1304C183.766 51.7265 184.262 52.8612 184.529 54.8443L189.484 54.1772ZM187.174 47.9887C185.681 46.1398 183.507 45.4092 181.167 45.4092V50.4092C182.466 50.4092 183.001 50.7788 183.285 51.1304L187.174 47.9887ZM181.167 45.4092C178.436 45.4092 175.948 46.2263 174.27 48.3076L178.162 51.4463C178.599 50.9039 179.412 50.4092 181.167 50.4092V45.4092ZM174.239 48.3465C172.866 50.1203 172.101 52.3889 171.769 54.9511L176.727 55.5938C176.988 53.5857 177.535 52.2573 178.193 51.4074L174.239 48.3465ZM171.764 54.9912C171.497 57.3487 171.367 60.0057 171.367 62.9531H176.367C176.367 60.1453 176.491 57.6819 176.732 55.5537L171.764 54.9912ZM171.367 62.9531V74.6963H176.367V62.9531H171.367ZM229.346 129.921L228.264 132.175L228.276 132.181L228.288 132.186L229.346 129.921ZM221.855 123.383L219.737 124.711L219.744 124.722L219.752 124.733L221.855 123.383ZM218.11 113.036L215.649 113.472L218.11 113.036ZM226.235 38.7051L224.72 36.7165L224.714 36.7209L224.709 36.7253L226.235 38.7051ZM258.862 42.0693L256.833 43.5292L256.839 43.5377L256.845 43.5462L258.862 42.0693ZM262.607 50.7021L260.168 51.2509L260.172 51.2654L260.175 51.2798L262.607 50.7021ZM263.813 72.6016V75.1016H266.313V72.6016H263.813ZM247.563 72.6016H245.063V75.1016H247.563V72.6016ZM247.183 54.5107L244.703 54.8273L244.704 54.8341L247.183 54.5107ZM245.469 50.0039L243.554 51.6119L243.571 51.6312L243.587 51.6502L245.469 50.0039ZM234.551 54.6377L232.103 54.1278L232.099 54.1476L232.095 54.1675L234.551 54.6377ZM234.487 112.084L232.021 112.495L232.025 112.52L232.03 112.545L234.487 112.084ZM236.519 116.781L234.646 118.438L234.68 118.476L234.715 118.513L236.519 116.781ZM245.215 116.718L243.312 115.097L243.306 115.103L245.215 116.718ZM247.563 93.4854V90.9854H245.063V93.4854H247.563ZM263.813 93.4854H266.313V90.9854H263.813V93.4854ZM262.671 115.067L265.115 115.591L265.117 115.585L262.671 115.067ZM252.007 130.111L253.071 132.373L253.085 132.367L253.098 132.36L252.007 130.111ZM241.406 129.643C236.772 129.643 233.143 128.934 230.403 127.655L228.288 132.186C231.896 133.87 236.308 134.643 241.406 134.643V129.643ZM230.428 127.667C227.652 126.335 225.517 124.46 223.959 122.033L219.752 124.733C221.833 127.976 224.692 130.46 228.264 132.175L230.428 127.667ZM223.974 122.055C222.402 119.548 221.248 116.418 220.572 112.6L215.649 113.472C216.411 117.78 217.754 121.548 219.737 124.711L223.974 122.055ZM220.572 112.6C219.883 108.711 219.531 104.269 219.531 99.2617H214.531C214.531 104.495 214.899 109.236 215.649 113.472L220.572 112.6ZM219.531 99.2617V68.4121H214.531V99.2617H219.531ZM219.531 68.4121C219.531 61.5312 220.175 55.7241 221.418 50.9515L216.58 49.6911C215.199 54.9901 214.531 61.2436 214.531 68.4121H219.531ZM221.418 50.9515C222.616 46.3554 224.762 42.9984 227.762 40.6849L224.709 36.7253C220.684 39.8284 218.006 44.2155 216.58 49.6911L221.418 50.9515ZM227.75 40.6937C230.701 38.4456 235.199 37.1426 241.597 37.1426V32.1426C234.622 32.1426 228.879 33.5478 224.72 36.7165L227.75 40.6937ZM241.597 37.1426C245.457 37.1426 248.557 37.7413 250.985 38.8286L253.028 34.2652C249.786 32.8134 245.946 32.1426 241.597 32.1426V37.1426ZM250.985 38.8286C253.437 39.9264 255.367 41.4917 256.833 43.5292L260.892 40.6095C258.887 37.8227 256.247 35.7064 253.028 34.2652L250.985 38.8286ZM256.845 43.5462C258.344 45.5933 259.469 48.1406 260.168 51.2509L265.046 50.1534C264.223 46.4928 262.851 43.285 260.879 40.5925L256.845 43.5462ZM260.175 51.2798C260.926 54.4405 261.313 58.0505 261.313 62.1279H266.313C266.313 57.7418 265.897 53.7346 265.04 50.1245L260.175 51.2798ZM261.313 62.1279V72.6016H266.313V62.1279H261.313ZM263.813 70.1016H247.563V75.1016H263.813V70.1016ZM250.063 72.6016V61.5566H245.063V72.6016H250.063ZM250.063 61.5566C250.063 58.7371 249.934 56.2742 249.662 54.1874L244.704 54.8341C244.939 56.6406 245.063 58.8748 245.063 61.5566H250.063ZM249.662 54.1942C249.374 51.938 248.689 49.8879 247.35 48.3576L243.587 51.6502C244.026 52.1511 244.483 53.1056 244.703 54.8273L249.662 54.1942ZM247.383 48.3959C245.849 46.5693 243.586 45.917 241.216 45.917V50.917C242.738 50.917 243.312 51.3227 243.554 51.6119L247.383 48.3959ZM241.216 45.917C238.838 45.917 236.651 46.5903 235.005 48.2361L238.54 51.7717C239.01 51.3017 239.785 50.917 241.216 50.917V45.917ZM235.005 48.2361C233.493 49.7475 232.589 51.7979 232.103 54.1278L236.998 55.1476C237.359 53.415 237.936 52.3762 238.54 51.7717L235.005 48.2361ZM232.095 54.1675C231.676 56.3572 231.479 58.9145 231.479 61.8105H236.479C236.479 59.1207 236.664 56.8961 237.006 55.1079L232.095 54.1675ZM231.479 61.8105V104.721H236.479V61.8105H231.479ZM231.479 104.721C231.479 107.686 231.653 110.286 232.021 112.495L236.953 111.673C236.644 109.819 236.479 107.51 236.479 104.721H231.479ZM232.03 112.545C232.462 114.848 233.276 116.888 234.646 118.438L238.391 115.125C237.815 114.474 237.274 113.382 236.944 111.623L232.03 112.545ZM234.715 118.513C236.342 120.207 238.567 120.868 240.962 120.868V115.868C239.464 115.868 238.727 115.471 238.322 115.05L234.715 118.513ZM240.962 120.868C243.35 120.868 245.576 120.162 247.123 118.333L243.306 115.103C242.992 115.475 242.382 115.868 240.962 115.868V120.868ZM247.118 118.339C248.489 116.729 249.253 114.649 249.593 112.318L244.645 111.596C244.393 113.327 243.887 114.421 243.312 115.097L247.118 118.339ZM249.593 112.318C249.911 110.135 250.063 107.618 250.063 104.784H245.063C245.063 107.452 244.919 109.717 244.645 111.596L249.593 112.318ZM250.063 104.784V93.4854H245.063V104.784H250.063ZM247.563 95.9854H263.813V90.9854H247.563V95.9854ZM261.313 93.4854V103.134H266.313V93.4854H261.313ZM261.313 103.134C261.313 107.35 260.945 111.151 260.225 114.549L265.117 115.585C265.92 111.79 266.313 107.636 266.313 103.134H261.313ZM260.226 114.544C259.521 117.838 258.383 120.571 256.862 122.798L260.99 125.618C262.938 122.767 264.298 119.407 265.115 115.591L260.226 114.544ZM256.862 122.798C255.382 124.962 253.418 126.648 250.915 127.862L253.098 132.36C256.351 130.782 258.999 128.532 260.99 125.618L256.862 122.798ZM250.942 127.849C248.486 129.005 245.339 129.643 241.406 129.643V134.643C245.852 134.643 249.773 133.926 253.071 132.373L250.942 127.849ZM288.95 130.048L287.895 132.314L287.908 132.32L287.92 132.326L288.95 130.048ZM281.587 123.891L279.497 125.262L279.509 125.281L279.522 125.3L281.587 123.891ZM277.715 114.052L275.261 114.532L275.264 114.547L275.268 114.563L277.715 114.052ZM278.857 49.3691L276.49 48.5655L276.486 48.5786L278.857 49.3691ZM286.475 38.5781L287.955 40.5926L287.963 40.5868L287.971 40.581L286.475 38.5781ZM311.548 36.8643L310.442 39.1066L310.455 39.1127L311.548 36.8643ZM318.848 43.2119L316.763 44.5913L316.775 44.6099L316.788 44.6282L318.848 43.2119ZM323.037 113.861L320.585 113.376L320.582 113.389L320.58 113.402L323.037 113.861ZM319.229 123.764L317.143 122.384L317.138 122.392L319.229 123.764ZM304.756 116.845L306.659 118.466L306.673 118.449L306.688 118.432L304.756 116.845ZM296.06 49.9404L294.191 48.2795L294.174 48.2992L294.156 48.3193L296.06 49.9404ZM294.028 54.7646L291.569 54.313L291.565 54.3374L291.561 54.3618L294.028 54.7646ZM294.028 111.957L291.561 112.36L291.565 112.384L291.569 112.409L294.028 111.957ZM296.06 116.845L294.128 118.432L294.159 118.469L294.191 118.506L296.06 116.845ZM300.439 129.643C296.107 129.643 292.654 128.978 289.98 127.77L287.92 132.326C291.425 133.91 295.631 134.643 300.439 134.643V129.643ZM290.006 127.782C287.3 126.522 285.204 124.755 283.652 122.481L279.522 125.3C281.609 128.358 284.422 130.697 287.895 132.314L290.006 127.782ZM283.677 122.519C282.104 120.122 280.915 117.149 280.162 113.541L275.268 114.563C276.122 118.656 277.515 122.242 279.497 125.262L283.677 122.519ZM280.168 113.572C279.444 109.87 279.072 105.613 279.072 100.785H274.072C274.072 105.86 274.462 110.447 275.261 114.532L280.168 113.572ZM279.072 100.785V65.1748H274.072V100.785H279.072ZM279.072 65.1748C279.072 59.4152 279.808 54.4227 281.229 50.1597L276.486 48.5786C274.86 53.4562 274.072 59.0008 274.072 65.1748H279.072ZM281.225 50.1727C282.646 45.9856 284.903 42.8356 287.955 40.5926L284.994 36.5637C281.021 39.4834 278.2 43.5274 276.49 48.5656L281.225 50.1727ZM287.971 40.581C290.93 38.3702 295.008 37.1426 300.439 37.1426V32.1426C294.276 32.1426 289.044 33.5387 284.978 36.5752L287.971 40.581ZM300.439 37.1426C304.573 37.1426 307.872 37.8396 310.442 39.1066L312.653 34.6219C309.214 32.9267 305.108 32.1426 300.439 32.1426V37.1426ZM310.455 39.1127C313.111 40.4037 315.197 42.2244 316.763 44.5913L320.933 41.8326C318.859 38.6981 316.079 36.287 312.641 34.6158L310.455 39.1127ZM316.788 44.6282C318.444 47.037 319.685 49.9499 320.472 53.4144L325.348 52.3063C324.443 48.3229 322.976 44.8035 320.908 41.7956L316.788 44.6282ZM320.472 53.4144C321.271 56.9283 321.68 60.8441 321.68 65.1748H326.68C326.68 60.5341 326.242 56.2403 325.348 52.3063L320.472 53.4144ZM321.68 65.1748V100.785H326.68V65.1748H321.68ZM321.68 100.785C321.68 105.526 321.308 109.718 320.585 113.376L325.49 114.346C326.289 110.303 326.68 105.778 326.68 100.785H321.68ZM320.58 113.402C319.91 116.985 318.747 119.96 317.143 122.384L321.314 125.143C323.349 122.066 324.725 118.439 325.495 114.32L320.58 113.402ZM317.138 122.392C315.624 124.7 313.573 126.473 310.925 127.724L313.06 132.245C316.505 130.618 319.278 128.244 321.319 125.135L317.138 122.392ZM310.925 127.724C308.314 128.957 304.858 129.643 300.439 129.643V134.643C305.331 134.643 309.577 133.89 313.06 132.245L310.925 127.724ZM300.439 121.059C302.864 121.059 305.088 120.31 306.659 118.466L302.853 115.224C302.477 115.665 301.824 116.059 300.439 116.059V121.059ZM306.688 118.432C308.026 116.803 308.807 114.714 309.191 112.36L304.256 111.554C303.964 113.347 303.433 114.517 302.824 115.258L306.688 118.432ZM309.191 112.36C309.556 110.121 309.731 107.591 309.731 104.784H304.731C304.731 107.394 304.568 109.645 304.256 111.554L309.191 112.36ZM309.731 104.784V62.1914H304.731V104.784H309.731ZM309.731 62.1914C309.731 59.213 309.535 56.5783 309.119 54.313L304.201 55.2163C304.547 57.0982 304.731 59.4146 304.731 62.1914H309.731ZM309.119 54.313C308.689 51.9734 307.882 49.9046 306.532 48.3193L302.726 51.5616C303.322 52.2615 303.869 53.4087 304.201 55.2163L309.119 54.313ZM306.532 48.3193C304.983 46.5013 302.821 45.7266 300.439 45.7266V50.7266C301.697 50.7266 302.328 51.0944 302.726 51.5616L306.532 48.3193ZM300.439 45.7266C298.01 45.7266 295.794 46.4765 294.191 48.2795L297.928 51.6013C298.357 51.1192 299.06 50.7266 300.439 50.7266V45.7266ZM294.156 48.3193C292.806 49.9046 291.999 51.9734 291.569 54.313L296.487 55.2163C296.819 53.4087 297.367 52.2615 297.963 51.5616L294.156 48.3193ZM291.561 54.3618C291.194 56.6071 291.021 59.2245 291.021 62.1914H296.021C296.021 59.4031 296.185 57.0694 296.496 55.1675L291.561 54.3618ZM291.021 62.1914V104.784H296.021V62.1914H291.021ZM291.021 104.784C291.021 107.591 291.196 110.121 291.561 112.36L296.496 111.554C296.184 109.645 296.021 107.394 296.021 104.784H291.021ZM291.569 112.409C292 114.75 292.803 116.819 294.128 118.432L297.991 115.258C297.369 114.501 296.819 113.311 296.487 111.505L291.569 112.409ZM294.191 118.506C295.794 120.309 298.01 121.059 300.439 121.059V116.059C299.06 116.059 298.357 115.666 297.928 115.184L294.191 118.506ZM362.012 129.667L360.599 131.729L360.62 131.744L360.643 131.759L362.012 129.667ZM356.553 122.113L358.882 121.204L354.053 122.113H356.553ZM356.553 131V133.5H359.053V131H356.553ZM339.731 131H337.231V133.5H339.731V131ZM339.731 18.3291V15.8291H337.231V18.3291H339.731ZM356.553 18.3291H359.053V15.8291H356.553V18.3291ZM356.553 42.6406H354.053L358.882 43.5486L356.553 42.6406ZM361.504 36.8008L362.79 38.9445L361.504 36.8008ZM368.486 34.6426L368.444 32.1429L368.441 32.143L368.486 34.6426ZM380.166 38.1973L378.502 40.0626L378.51 40.0698L378.518 40.0769L380.166 38.1973ZM385.879 48.29L383.451 48.8852L383.454 48.8964L383.456 48.9075L385.879 48.29ZM369.565 114.306L371.986 114.929L371.989 114.921L369.565 114.306ZM370.2 55.2725L367.717 55.559L367.719 55.5825L367.723 55.606L370.2 55.2725ZM368.486 50.1309L366.438 51.5645L366.45 51.5809L366.461 51.5971L368.486 50.1309ZM357.886 114.242L355.497 114.98L355.504 115.001L355.511 115.022L357.886 114.242ZM369.756 129.452C367.397 129.452 365.293 128.827 363.381 127.575L360.643 131.759C363.385 133.554 366.444 134.452 369.756 134.452V129.452ZM363.425 127.605C361.675 126.405 360.115 124.365 358.882 121.204L354.224 123.022C355.699 126.802 357.779 129.797 360.599 131.729L363.425 127.605ZM354.053 122.113V131H359.053V122.113H354.053ZM356.553 128.5H339.731V133.5H356.553V128.5ZM342.231 131V18.3291H337.231V131H342.231ZM339.731 20.8291H356.553V15.8291H339.731V20.8291ZM354.053 18.3291V42.6406H359.053V18.3291H354.053ZM358.882 43.5486C359.651 41.5751 360.931 40.06 362.79 38.9445L360.218 34.657C357.422 36.3345 355.401 38.7126 354.223 41.7326L358.882 43.5486ZM362.79 38.9445C364.805 37.7355 366.71 37.1753 368.532 37.1422L368.441 32.143C365.608 32.1945 362.858 33.0731 360.218 34.657L362.79 38.9445ZM368.528 37.1422C373.169 37.0642 376.369 38.1594 378.502 40.0626L381.83 36.3319C378.462 33.3263 373.876 32.0516 368.444 32.1429L368.528 37.1422ZM378.518 40.0769C380.806 42.084 382.488 44.9581 383.451 48.8852L388.307 47.6949C387.154 42.9892 385.027 39.1348 381.814 36.3176L378.518 40.0769ZM383.456 48.9075C384.494 52.9787 385.029 57.7157 385.029 63.1436H390.029C390.029 57.3995 389.464 52.2342 388.301 47.6725L383.456 48.9075ZM385.029 63.1436V103.451H390.029V63.1436H385.029ZM385.029 103.451C385.029 108.665 384.516 113.306 383.514 117.392L388.371 118.582C389.485 114.036 390.029 108.986 390.029 103.451H385.029ZM383.514 117.392C382.542 121.36 380.916 124.311 378.745 126.41L382.221 130.004C385.214 127.11 387.227 123.248 388.371 118.582L383.514 117.392ZM378.745 126.41C376.748 128.342 373.862 129.452 369.756 129.452V134.452C374.79 134.452 379.056 133.066 382.221 130.004L378.745 126.41ZM364.106 120.995C365.965 120.995 367.73 120.546 369.183 119.431C370.64 118.313 371.524 116.725 371.986 114.929L367.144 113.682C366.888 114.679 366.502 115.186 366.139 115.464C365.773 115.746 365.168 115.995 364.106 115.995V120.995ZM371.989 114.921C372.785 111.78 373.145 107.385 373.145 101.864H368.145C368.145 107.262 367.784 111.161 367.142 113.691L371.989 114.921ZM373.145 101.864V62.8896H368.145V101.864H373.145ZM373.145 62.8896C373.145 59.9312 372.993 57.2768 372.678 54.9389L367.723 55.606C368 57.6692 368.145 60.0929 368.145 62.8896H373.145ZM372.684 54.9859C372.402 52.5429 371.741 50.3632 370.511 48.6646L366.461 51.5971C367.009 52.3529 367.491 53.601 367.717 55.559L372.684 54.9859ZM370.534 48.6972C369.058 46.588 366.761 45.7266 364.233 45.7266V50.7266C365.599 50.7266 366.137 51.1347 366.438 51.5645L370.534 48.6972ZM364.233 45.7266C362.083 45.7266 360.09 46.2569 358.429 47.4872L361.405 51.505C362.029 51.0425 362.914 50.7266 364.233 50.7266V45.7266ZM358.429 47.4872C356.638 48.8139 355.579 50.9238 354.958 53.3104L359.797 54.5685C360.277 52.7233 360.911 51.871 361.405 51.505L358.429 47.4872ZM354.958 53.3104C354.33 55.729 354.053 58.9373 354.053 62.8262H359.053C359.053 59.0979 359.326 56.3817 359.797 54.5685L354.958 53.3104ZM354.053 62.8262V102.055H359.053V62.8262H354.053ZM354.053 102.055C354.053 107.396 354.499 111.75 355.497 114.98L360.274 113.505C359.495 110.98 359.053 107.208 359.053 102.055H354.053ZM355.511 115.022C356.114 116.86 357.157 118.421 358.728 119.496C360.283 120.559 362.136 120.995 364.106 120.995V115.995C362.861 115.995 362.069 115.723 361.55 115.368C361.048 115.025 360.588 114.459 360.261 113.462L355.511 115.022ZM402.891 131H400.391V133.5H402.891V131ZM402.891 18.3291V15.8291H400.391V18.3291H402.891ZM419.648 18.3291H422.148V15.8291H419.648V18.3291ZM419.648 131V133.5H422.148V131H419.648ZM405.391 131V18.3291H400.391V131H405.391ZM402.891 20.8291H419.648V15.8291H402.891V20.8291ZM417.148 18.3291V131H422.148V18.3291H417.148ZM419.648 128.5H402.891V133.5H419.648V128.5ZM447.642 130.048L446.586 132.314L446.599 132.32L446.612 132.326L447.642 130.048ZM440.278 123.891L438.188 125.262L438.201 125.281L438.213 125.3L440.278 123.891ZM436.406 114.052L433.953 114.532L433.956 114.547L433.959 114.563L436.406 114.052ZM437.549 49.3691L435.181 48.5655L435.177 48.5786L437.549 49.3691ZM445.166 38.5781L446.647 40.5926L446.654 40.5868L446.662 40.581L445.166 38.5781ZM470.239 36.8643L469.134 39.1066L469.146 39.1127L470.239 36.8643ZM477.539 43.2119L475.454 44.5913L475.466 44.6099L475.479 44.6282L477.539 43.2119ZM481.729 113.861L479.276 113.376L479.273 113.389L479.271 113.402L481.729 113.861ZM477.92 123.764L475.835 122.384L475.83 122.392L477.92 123.764ZM463.447 116.845L465.35 118.466L465.365 118.449L465.379 118.432L463.447 116.845ZM454.751 49.9404L452.882 48.2795L452.865 48.2992L452.848 48.3193L454.751 49.9404ZM452.72 54.7646L450.261 54.313L450.256 54.3374L450.252 54.3618L452.72 54.7646ZM452.72 111.957L450.252 112.36L450.256 112.384L450.261 112.409L452.72 111.957ZM454.751 116.845L452.819 118.432L452.85 118.469L452.882 118.506L454.751 116.845ZM459.131 129.643C454.799 129.643 451.345 128.978 448.671 127.77L446.612 132.326C450.116 133.91 454.322 134.643 459.131 134.643V129.643ZM448.697 127.782C445.992 126.522 443.895 124.755 442.343 122.481L438.213 125.3C440.301 128.358 443.113 130.697 446.586 132.314L448.697 127.782ZM442.368 122.519C440.796 120.122 439.607 117.149 438.853 113.541L433.959 114.563C434.814 118.656 436.206 122.242 438.188 125.262L442.368 122.519ZM438.86 113.572C438.135 109.87 437.764 105.613 437.764 100.785H432.764C432.764 105.86 433.154 110.447 433.953 114.532L438.86 113.572ZM437.764 100.785V65.1748H432.764V100.785H437.764ZM437.764 65.1748C437.764 59.4152 438.5 54.4227 439.921 50.1597L435.177 48.5786C433.551 53.4562 432.764 59.0008 432.764 65.1748H437.764ZM439.916 50.1727C441.337 45.9856 443.595 42.8356 446.647 40.5926L443.686 36.5637C439.713 39.4834 436.892 43.5274 435.181 48.5656L439.916 50.1727ZM446.662 40.581C449.622 38.3702 453.7 37.1426 459.131 37.1426V32.1426C452.967 32.1426 447.735 33.5387 443.67 36.5752L446.662 40.581ZM459.131 37.1426C463.264 37.1426 466.564 37.8396 469.134 39.1066L471.345 34.6219C467.906 32.9267 463.8 32.1426 459.131 32.1426V37.1426ZM469.146 39.1127C471.802 40.4037 473.888 42.2244 475.454 44.5913L479.624 41.8326C477.551 38.6981 474.77 36.287 471.332 34.6158L469.146 39.1127ZM475.479 44.6282C477.135 47.037 478.376 49.9499 479.164 53.4144L484.039 52.3063C483.134 48.3229 481.667 44.8035 479.599 41.7956L475.479 44.6282ZM479.164 53.4144C479.962 56.9283 480.371 60.8441 480.371 65.1748H485.371C485.371 60.5341 484.934 56.2403 484.039 52.3063L479.164 53.4144ZM480.371 65.1748V100.785H485.371V65.1748H480.371ZM480.371 100.785C480.371 105.526 480 109.718 479.276 113.376L484.181 114.346C484.981 110.303 485.371 105.778 485.371 100.785H480.371ZM479.271 113.402C478.602 116.985 477.439 119.96 475.835 122.384L480.005 125.143C482.04 122.066 483.417 118.439 484.186 114.32L479.271 113.402ZM475.83 122.392C474.315 124.7 472.264 126.473 469.616 127.724L471.751 132.245C475.197 130.618 477.97 128.244 480.01 125.135L475.83 122.392ZM469.616 127.724C467.005 128.957 463.549 129.643 459.131 129.643V134.643C464.022 134.643 468.268 133.89 471.751 132.245L469.616 127.724ZM459.131 121.059C461.555 121.059 463.78 120.31 465.35 118.466L461.544 115.224C461.168 115.665 460.515 116.059 459.131 116.059V121.059ZM465.379 118.432C466.717 116.803 467.498 114.714 467.882 112.36L462.948 111.554C462.655 113.347 462.124 114.517 461.515 115.258L465.379 118.432ZM467.882 112.36C468.248 110.121 468.423 107.591 468.423 104.784H463.423C463.423 107.394 463.259 109.645 462.948 111.554L467.882 112.36ZM468.423 104.784V62.1914H463.423V104.784H468.423ZM468.423 62.1914C468.423 59.213 468.227 56.5783 467.81 54.313L462.893 55.2163C463.238 57.0982 463.423 59.4146 463.423 62.1914H468.423ZM467.81 54.313C467.381 51.9734 466.574 49.9046 465.223 48.3193L461.417 51.5616C462.013 52.2615 462.561 53.4087 462.893 55.2163L467.81 54.313ZM465.223 48.3193C463.675 46.5013 461.513 45.7266 459.131 45.7266V50.7266C460.388 50.7266 461.019 51.0944 461.417 51.5616L465.223 48.3193ZM459.131 45.7266C456.702 45.7266 454.485 46.4765 452.882 48.2795L456.62 51.6013C457.048 51.1192 457.752 50.7266 459.131 50.7266V45.7266ZM452.848 48.3193C451.497 49.9046 450.691 51.9734 450.261 54.313L455.179 55.2163C455.511 53.4087 456.058 52.2615 456.654 51.5616L452.848 48.3193ZM450.252 54.3618C449.886 56.6071 449.712 59.2245 449.712 62.1914H454.712C454.712 59.4031 454.877 57.0694 455.187 55.1675L450.252 54.3618ZM449.712 62.1914V104.784H454.712V62.1914H449.712ZM449.712 104.784C449.712 107.591 449.887 110.121 450.252 112.36L455.187 111.554C454.875 109.645 454.712 107.394 454.712 104.784H449.712ZM450.261 112.409C450.691 114.75 451.495 116.819 452.819 118.432L456.683 115.258C456.061 114.501 455.51 113.311 455.179 111.505L450.261 112.409ZM452.882 118.506C454.485 120.309 456.702 121.059 459.131 121.059V116.059C457.752 116.059 457.048 115.666 456.62 115.184L452.882 118.506ZM509.15 129.921L508.069 132.175L508.081 132.181L508.093 132.186L509.15 129.921ZM501.66 123.383L499.542 124.711L499.549 124.722L499.556 124.733L501.66 123.383ZM497.915 113.036L495.453 113.472L497.915 113.036ZM506.04 38.7051L504.525 36.7165L504.519 36.7209L504.513 36.7253L506.04 38.7051ZM538.667 42.0693L536.637 43.5292L536.644 43.5377L536.65 43.5462L538.667 42.0693ZM542.412 50.7021L539.973 51.2509L539.976 51.2654L539.98 51.2798L542.412 50.7021ZM543.618 72.6016V75.1016H546.118V72.6016H543.618ZM527.368 72.6016H524.868V75.1016H527.368V72.6016ZM526.987 54.5107L524.507 54.8273L524.508 54.8341L526.987 54.5107ZM525.273 50.0039L523.359 51.6119L523.375 51.6312L523.392 51.6502L525.273 50.0039ZM514.355 54.6377L511.908 54.1278L511.904 54.1476L511.9 54.1675L514.355 54.6377ZM514.292 112.084L511.826 112.495L511.83 112.52L511.835 112.545L514.292 112.084ZM516.323 116.781L514.451 118.438L514.484 118.476L514.52 118.513L516.323 116.781ZM525.02 116.718L523.116 115.097L523.111 115.103L525.02 116.718ZM527.368 93.4854V90.9854H524.868V93.4854H527.368ZM543.618 93.4854H546.118V90.9854H543.618V93.4854ZM542.476 115.067L544.92 115.591L544.921 115.585L542.476 115.067ZM531.812 130.111L532.876 132.373L532.89 132.367L532.903 132.36L531.812 130.111ZM521.211 129.643C516.576 129.643 512.948 128.934 510.208 127.655L508.093 132.186C511.701 133.87 516.113 134.643 521.211 134.643V129.643ZM510.232 127.667C507.457 126.335 505.322 124.46 503.764 122.033L499.556 124.733C501.638 127.976 504.497 130.46 508.069 132.175L510.232 127.667ZM503.778 122.055C502.207 119.548 501.053 116.418 500.377 112.6L495.453 113.472C496.216 117.78 497.559 121.548 499.542 124.711L503.778 122.055ZM500.377 112.6C499.688 108.711 499.336 104.269 499.336 99.2617H494.336C494.336 104.495 494.703 109.236 495.453 113.472L500.377 112.6ZM499.336 99.2617V68.4121H494.336V99.2617H499.336ZM499.336 68.4121C499.336 61.5312 499.98 55.7241 501.223 50.9515L496.384 49.6911C495.004 54.9901 494.336 61.2436 494.336 68.4121H499.336ZM501.223 50.9515C502.42 46.3554 504.566 42.9984 507.567 40.6849L504.513 36.7253C500.489 39.8284 497.811 44.2155 496.384 49.6911L501.223 50.9515ZM507.555 40.6937C510.506 38.4456 515.004 37.1426 521.401 37.1426V32.1426C514.427 32.1426 508.684 33.5478 504.525 36.7165L507.555 40.6937ZM521.401 37.1426C525.262 37.1426 528.362 37.7413 530.79 38.8286L532.833 34.2652C529.591 32.8134 525.751 32.1426 521.401 32.1426V37.1426ZM530.79 38.8286C533.242 39.9264 535.172 41.4917 536.637 43.5292L540.697 40.6095C538.692 37.8227 536.052 35.7064 532.833 34.2652L530.79 38.8286ZM536.65 43.5462C538.149 45.5933 539.273 48.1406 539.973 51.2509L544.851 50.1534C544.028 46.4928 542.655 43.285 540.684 40.5925L536.65 43.5462ZM539.98 51.2798C540.73 54.4405 541.118 58.0505 541.118 62.1279H546.118C546.118 57.7418 545.702 53.7346 544.844 50.1245L539.98 51.2798ZM541.118 62.1279V72.6016H546.118V62.1279H541.118ZM543.618 70.1016H527.368V75.1016H543.618V70.1016ZM529.868 72.6016V61.5566H524.868V72.6016H529.868ZM529.868 61.5566C529.868 58.7371 529.738 56.2742 529.466 54.1874L524.508 54.8341C524.744 56.6406 524.868 58.8748 524.868 61.5566H529.868ZM529.467 54.1942C529.179 51.938 528.494 49.8879 527.155 48.3576L523.392 51.6502C523.83 52.1511 524.288 53.1056 524.507 54.8273L529.467 54.1942ZM527.188 48.3959C525.653 46.5693 523.391 45.917 521.021 45.917V50.917C522.543 50.917 523.116 51.3227 523.359 51.6119L527.188 48.3959ZM521.021 45.917C518.643 45.917 516.455 46.5903 514.809 48.2361L518.345 51.7717C518.815 51.3017 519.589 50.917 521.021 50.917V45.917ZM514.809 48.2361C513.298 49.7475 512.393 51.7979 511.908 54.1278L516.803 55.1476C517.164 53.415 517.74 52.3762 518.345 51.7717L514.809 48.2361ZM511.9 54.1675C511.481 56.3572 511.284 58.9145 511.284 61.8105H516.284C516.284 59.1207 516.468 56.8961 516.811 55.1079L511.9 54.1675ZM511.284 61.8105V104.721H516.284V61.8105H511.284ZM511.284 104.721C511.284 107.686 511.458 110.286 511.826 112.495L516.758 111.673C516.449 109.819 516.284 107.51 516.284 104.721H511.284ZM511.835 112.545C512.267 114.848 513.08 116.888 514.451 118.438L518.196 115.125C517.62 114.474 517.079 113.382 516.749 111.623L511.835 112.545ZM514.52 118.513C516.146 120.207 518.371 120.868 520.767 120.868V115.868C519.269 115.868 518.531 115.471 518.127 115.05L514.52 118.513ZM520.767 120.868C523.155 120.868 525.38 120.162 526.928 118.333L523.111 115.103C522.797 115.475 522.187 115.868 520.767 115.868V120.868ZM526.923 118.339C528.294 116.729 529.058 114.649 529.398 112.318L524.45 111.596C524.198 113.327 523.692 114.421 523.116 115.097L526.923 118.339ZM529.398 112.318C529.716 110.135 529.868 107.618 529.868 104.784H524.868C524.868 107.452 524.724 109.717 524.45 111.596L529.398 112.318ZM529.868 104.784V93.4854H524.868V104.784H529.868ZM527.368 95.9854H543.618V90.9854H527.368V95.9854ZM541.118 93.4854V103.134H546.118V93.4854H541.118ZM541.118 103.134C541.118 107.35 540.75 111.151 540.03 114.549L544.921 115.585C545.725 111.79 546.118 107.636 546.118 103.134H541.118ZM540.031 114.544C539.325 117.838 538.188 120.571 536.666 122.798L540.795 125.618C542.743 122.767 544.103 119.407 544.92 115.591L540.031 114.544ZM536.666 122.798C535.187 124.962 533.222 126.648 530.72 127.862L532.903 132.36C536.156 130.782 538.804 128.532 540.795 125.618L536.666 122.798ZM530.747 127.849C528.29 129.005 525.144 129.643 521.211 129.643V134.643C525.657 134.643 529.577 133.926 532.876 132.373L530.747 127.849ZM557.964 131H555.464V133.5H557.964V131ZM557.964 18.3291V15.8291H555.464V18.3291H557.964ZM574.785 18.3291H577.285V15.8291H574.785V18.3291ZM574.785 79.0762H572.285L577.126 79.9547L574.785 79.0762ZM591.035 35.7852V33.2852H589.303L588.695 34.9066L591.035 35.7852ZM608.11 35.7852L610.438 36.6968L611.774 33.2852H608.11V35.7852ZM589.766 82.6309L587.438 81.7193L587.076 82.6424L587.446 83.5625L589.766 82.6309ZM609.189 131V133.5H612.887L611.509 130.068L609.189 131ZM592.051 131L589.715 131.891L590.329 133.5H592.051V131ZM574.785 85.7412L577.121 84.8501L572.285 85.7412H574.785ZM574.785 131V133.5H577.285V131H574.785ZM560.464 131V18.3291H555.464V131H560.464ZM557.964 20.8291H574.785V15.8291H557.964V20.8291ZM572.285 18.3291V79.0762H577.285V18.3291H572.285ZM577.126 79.9547L593.376 36.6637L588.695 34.9066L572.445 78.1976L577.126 79.9547ZM591.035 38.2852H608.11V33.2852H591.035V38.2852ZM605.782 34.8736L587.438 81.7193L592.094 83.5424L610.438 36.6968L605.782 34.8736ZM587.446 83.5625L606.87 131.932L611.509 130.068L592.086 81.6992L587.446 83.5625ZM609.189 128.5H592.051V133.5H609.189V128.5ZM594.387 130.109L577.121 84.8501L572.449 86.6323L589.715 131.891L594.387 130.109ZM572.285 85.7412V131H577.285V85.7412H572.285ZM574.785 128.5H557.964V133.5H574.785V128.5Z" fill="white"/>
</svg>
